<svg width="33" height="27" viewBox="0 0 33 27" fill="none" xmlns="http://www.w3.org/2000/svg">
<path d="M0.75 25.5312C0.604167 25.3438 0.53125 24.9688 0.53125 24.4062C0.53125 23.8438 0.572917 23.1979 0.65625 22.4688C0.739583 21.7188 0.854167 20.9479 1 20.1562C1.14583 19.3438 1.28125 18.6042 1.40625 17.9375C1.55208 17.25 1.67708 16.6771 1.78125 16.2188C1.88542 15.7396 1.94792 15.4688 1.96875 15.4062C2.26042 13.4688 2.53125 11.625 2.78125 9.875C3.05208 8.125 3.1875 6.28125 3.1875 4.34375C3.85417 3.94792 4.5 3.83333 5.125 4C5.77083 4.14583 6.375 4.42708 6.9375 4.84375C7.52083 5.26042 8.05208 5.75 8.53125 6.3125C9.03125 6.875 9.46875 7.36458 9.84375 7.78125C10.0521 8.01042 10.3646 8.36458 10.7812 8.84375C11.1979 9.32292 11.6667 9.86458 12.1875 10.4688C12.7083 11.0729 13.25 11.7083 13.8125 12.375C14.3958 13.0208 14.9479 13.6458 15.4688 14.25C15.9896 14.8333 16.4479 15.3646 16.8438 15.8438C17.2396 16.3229 17.5312 16.6667 17.7188 16.875C17.8438 17.0208 18.0417 17.2812 18.3125 17.6562C18.6042 18.0312 18.9062 18.4271 19.2188 18.8438C19.5312 19.2604 19.8229 19.6562 20.0938 20.0312C20.3854 20.4062 20.5833 20.6667 20.6875 20.8125C21.1458 19.3125 21.4479 17.75 21.5938 16.125C21.7396 14.4792 21.8438 12.8333 21.9062 11.1875C21.9688 9.52083 22.0521 7.86458 22.1562 6.21875C22.2604 4.57292 22.5104 2.96875 22.9062 1.40625C23.0104 0.947917 23.1771 0.666667 23.4062 0.5625C23.6562 0.4375 23.9167 0.4375 24.1875 0.5625C24.4583 0.666667 24.7292 0.854167 25 1.125C25.2708 1.39583 25.4792 1.6875 25.625 2C25.7917 2.29167 25.875 2.57292 25.875 2.84375C25.8958 3.09375 25.8021 3.26042 25.5938 3.34375C25.5104 3.38542 25.3438 3.40625 25.0938 3.40625C24.8438 3.40625 24.6875 3.3125 24.625 3.125L24.375 3.34375C24.3542 3.36458 24.3125 3.52083 24.25 3.8125C24.1875 4.10417 24.1146 4.44792 24.0312 4.84375C23.9688 5.21875 23.8958 5.61458 23.8125 6.03125C23.75 6.44792 23.6979 6.79167 23.6562 7.0625C23.4271 8.41667 23.2708 9.78125 23.1875 11.1562C23.1042 12.5312 23.0312 13.9062 22.9688 15.2812C22.9271 16.6562 22.8646 18.0312 22.7812 19.4062C22.7188 20.7812 22.5938 22.1562 22.4062 23.5312C22.2188 24.0104 21.9896 24.25 21.7188 24.25C21.4688 24.2292 21.1979 24.0833 20.9062 23.8125C20.6354 23.5417 20.3542 23.1771 20.0625 22.7188C19.7708 22.2604 19.5104 21.8125 19.2812 21.375C19.0521 20.9167 18.8646 20.5208 18.7188 20.1875C18.5729 19.8333 18.4896 19.6354 18.4688 19.5938C16.6354 17.2812 14.7812 15.0833 12.9062 13C11.0312 10.9167 9.03125 8.85417 6.90625 6.8125C6.67708 6.64583 6.40625 6.45833 6.09375 6.25C5.78125 6.04167 5.47917 5.97917 5.1875 6.0625C5.16667 6.125 5.125 6.25 5.0625 6.4375C5.02083 6.625 4.96875 6.82292 4.90625 7.03125C4.86458 7.23958 4.82292 7.4375 4.78125 7.625C4.73958 7.8125 4.70833 7.94792 4.6875 8.03125C4.3125 10.9688 3.94792 13.8854 3.59375 16.7812C3.26042 19.6562 2.88542 22.5729 2.46875 25.5312C2.13542 25.8438 1.83333 26.0104 1.5625 26.0312C1.29167 26.0521 1.02083 25.8854 0.75 25.5312ZM30.4375 25C30.375 24.8958 30.2812 24.6875 30.1562 24.375C30.0312 24.0417 29.9167 23.6875 29.8125 23.3125C29.7292 22.9375 29.6771 22.5729 29.6562 22.2188C29.6562 21.8438 29.7604 21.5417 29.9688 21.3125C30.7812 21.4167 31.3958 21.6458 31.8125 22C32.2292 22.3542 32.4896 22.75 32.5938 23.1875C32.7188 23.625 32.7188 24.0625 32.5938 24.5C32.4688 24.9167 32.2812 25.25 32.0312 25.5C31.8021 25.7292 31.5417 25.8333 31.25 25.8125C30.9583 25.7708 30.6875 25.5 30.4375 25Z" fill="black"/>
</svg>
